<svg width="1107" height="173" viewBox="0 0 1107 173" fill="none" xmlns="http://www.w3.org/2000/svg">
<path d="M386.77 135.515C380.644 135.639 374.56 134.477 368.91 132.105C363.939 129.953 359.557 126.64 356.13 122.445C352.628 118.063 349.979 113.063 348.32 107.705C346.435 101.663 345.385 95.3914 345.2 89.0648C345.073 86.7248 345.007 84.6115 345 82.7248C345 80.8448 345.07 78.7248 345.2 76.3848C345.397 70.2292 346.406 64.1265 348.2 58.2348C349.838 52.8708 352.489 47.8706 356.01 43.5048C359.476 39.2592 363.887 35.8827 368.89 33.6448C374.522 31.2048 380.614 30.0076 386.75 30.1348C393.77 30.1348 399.72 31.3382 404.6 33.7448C409.257 35.9737 413.415 39.1238 416.82 43.0048V4.68482C416.791 3.45726 417.247 2.26774 418.09 1.37482C418.527 0.915229 419.057 0.555014 419.646 0.318627C420.234 0.0822396 420.867 -0.0247845 421.5 0.00482039H439.09C439.708 -0.00521519 440.321 0.111141 440.892 0.346738C441.463 0.582335 441.979 0.932196 442.41 1.37482C442.852 1.8037 443.202 2.31868 443.438 2.88796C443.673 3.45725 443.79 4.06878 443.78 4.68482V128.885C443.78 129.5 443.659 130.11 443.423 130.678C443.187 131.247 442.841 131.763 442.406 132.198C441.97 132.632 441.453 132.977 440.884 133.211C440.315 133.446 439.705 133.566 439.09 133.565H421.68C421.045 133.595 420.411 133.488 419.821 133.251C419.231 133.015 418.699 132.655 418.26 132.195C417.417 131.302 416.961 130.112 416.99 128.885V121.665C413.605 125.828 410.384 129.235 405.6 131.665C400.593 134.231 394.317 135.515 386.77 135.515ZM393.99 114.635C399.45 114.635 403.807 113.398 407.06 110.925C410.286 108.49 412.783 105.218 414.28 101.465C415.828 97.7122 416.688 93.7119 416.82 89.6548C416.95 87.3148 417.02 84.8048 417.02 82.1448C417.02 79.4848 416.95 76.9648 416.82 74.6248C416.693 70.7367 415.763 66.9168 414.09 63.4048C412.422 59.8555 409.866 56.7968 406.67 54.5248C403.423 52.1782 399.197 51.0048 393.99 51.0048C388.517 51.0048 384.183 52.2082 380.99 54.6148C377.802 57.0203 375.392 60.3101 374.06 64.0748C372.582 68.2352 371.736 72.5936 371.55 77.0048C371.41 80.9182 371.41 84.8215 371.55 88.7148C371.745 93.1105 372.597 97.4521 374.08 101.595C375.409 105.364 377.819 108.658 381.01 111.065C384.203 113.451 388.53 114.641 393.99 114.635Z" fill="#212529"/>
<path d="M500.26 135.515C485.82 135.515 474.37 131.351 465.91 123.025C457.45 114.698 452.897 102.858 452.25 87.5048C452.12 86.2048 452.05 84.5048 452.05 82.5048C452.033 80.9091 452.099 79.3135 452.25 77.7248C452.77 67.8315 455.013 59.3415 458.98 52.2548C462.79 45.3224 468.515 39.6327 475.47 35.8648C482.503 32.0248 490.767 30.1048 500.26 30.1048C510.8 30.1048 519.647 32.2848 526.8 36.6448C533.89 40.9389 539.532 47.2567 543 54.7848C546.64 62.5382 548.46 71.4848 548.46 81.6248V85.7248C548.471 86.341 548.355 86.9529 548.119 87.5224C547.884 88.0918 547.533 88.6067 547.09 89.0348C546.63 89.492 546.082 89.8496 545.478 90.0853C544.874 90.321 544.228 90.4298 543.58 90.4048H478.79V92.0048C478.873 96.3289 479.765 100.599 481.42 104.595C482.936 108.289 485.437 111.495 488.65 113.865C491.969 116.248 495.976 117.481 500.06 117.375C505.662 117.591 511.131 115.631 515.32 111.905C516.54 110.844 517.652 109.665 518.64 108.385C519.367 107.247 520.333 106.282 521.47 105.555C522.501 105.183 523.595 105.019 524.69 105.075H541.47C542.655 105.031 543.81 105.451 544.69 106.245C545.1 106.604 545.414 107.061 545.602 107.573C545.791 108.084 545.849 108.635 545.77 109.175C545.64 111.255 544.56 113.785 542.55 116.785C540.152 120.166 537.216 123.132 533.86 125.565C529.564 128.695 524.784 131.101 519.71 132.685C513.422 134.671 506.854 135.626 500.26 135.515ZM478.79 74.0048H521.92V73.4148C522.013 68.8299 521.148 64.2761 519.38 60.0448C517.847 56.3824 515.27 53.2523 511.97 51.0448C508.428 48.937 504.382 47.8244 500.26 47.8244C496.138 47.8244 492.092 48.937 488.55 51.0448C485.255 53.2342 482.702 56.3727 481.23 60.0448C479.525 64.2919 478.695 68.8394 478.79 73.4148V74.0048Z" fill="#212529"/>
<path d="M589.49 133.565C588.667 133.635 587.837 133.542 587.05 133.292C586.262 133.041 585.532 132.638 584.9 132.105C583.907 131.105 583.083 129.95 582.46 128.685L545.97 38.1348C545.726 37.5795 545.593 36.9814 545.58 36.3748C545.588 35.2395 546.042 34.1529 546.845 33.35C547.648 32.5472 548.735 32.0927 549.87 32.0848H565.68C566.322 32.035 566.967 32.1225 567.572 32.3415C568.177 32.5605 568.729 32.9059 569.19 33.3548C569.874 34.0505 570.406 34.8816 570.75 35.7948L596.75 104.295L622.75 35.7948C623.094 34.8816 623.626 34.0505 624.31 33.3548C624.773 32.9051 625.326 32.5593 625.933 32.3403C626.54 32.1213 627.187 32.0342 627.83 32.0848H643.83C644.363 32.0923 644.89 32.2088 645.376 32.4272C645.863 32.6456 646.3 32.9613 646.66 33.3548C647.063 33.7433 647.383 34.2094 647.602 34.725C647.82 35.2406 647.932 35.795 647.93 36.3548C647.921 36.9466 647.854 37.536 647.73 38.1148L611.04 128.665C610.521 129.963 609.722 131.131 608.7 132.085C607.383 133.151 605.709 133.673 604.02 133.545L589.49 133.565Z" fill="#212529"/>
<path d="M691.62 135.515C684.851 135.661 678.102 134.74 671.62 132.785C666.744 131.314 662.155 129.021 658.05 126.005C654.986 123.75 652.343 120.975 650.24 117.805C648.55 115.075 647.64 112.805 647.51 110.975C647.417 110.345 647.484 109.703 647.706 109.106C647.929 108.51 648.298 107.98 648.78 107.565C649.658 106.756 650.806 106.303 652 106.295H667.42C667.88 106.29 668.339 106.354 668.78 106.485C669.364 106.75 669.888 107.131 670.32 107.605C672.01 109.045 673.8 110.535 675.69 112.095C677.728 113.747 679.995 115.095 682.42 116.095C686.077 117.387 689.956 117.932 693.828 117.699C697.7 117.465 701.485 116.457 704.96 114.735C706.249 114.002 707.364 112.997 708.227 111.792C709.09 110.586 709.681 109.207 709.96 107.751C710.238 106.294 710.197 104.795 709.84 103.356C709.483 101.916 708.818 100.572 707.89 99.4148C706.39 97.7281 703.627 96.1981 699.6 94.8248C693.96 93.0401 688.225 91.5744 682.42 90.4348C676.131 89.093 670.046 86.9312 664.32 84.0048C659.923 81.7873 656.213 78.413 653.59 74.2448C651.105 69.9113 649.886 64.9679 650.07 59.976C650.253 54.9841 651.833 50.1438 654.63 46.0048C657.69 41.4181 662.253 37.6248 668.32 34.6248C674.387 31.6248 681.9 30.1281 690.86 30.1348C697.075 30.0166 703.269 30.9047 709.2 32.7648C713.854 34.24 718.242 36.4477 722.2 39.3048C725.239 41.4989 727.906 44.1661 730.1 47.2048C731.92 49.8715 732.897 52.1815 733.03 54.1348C733.124 54.7569 733.067 55.3924 732.863 55.9877C732.659 56.583 732.315 57.1205 731.86 57.5548C731.025 58.3679 729.906 58.8235 728.74 58.8248H714.25C713.643 58.8359 713.042 58.6986 712.5 58.4248C711.947 58.1455 711.425 57.8105 710.94 57.4248C709.5 56.0915 707.937 54.6915 706.25 53.2248C704.415 51.644 702.343 50.3616 700.11 49.4248C697.089 48.2778 693.869 47.7474 690.64 47.8648C685.687 47.8648 681.913 48.9381 679.32 51.0848C678.087 52.0406 677.093 53.2698 676.416 54.6754C675.739 56.0811 675.398 57.6248 675.42 59.1848C675.37 61.2849 676.04 63.339 677.32 65.0048C678.56 66.6381 681.067 68.1681 684.84 69.5948C690.429 71.4887 696.152 72.9628 701.96 74.0048C710.673 75.5648 717.6 77.8748 722.74 80.9348C727.88 83.9948 731.523 87.5181 733.67 91.5048C735.839 95.5558 736.947 100.09 736.89 104.685C736.942 110.375 735.126 115.926 731.72 120.485C728.273 125.151 723.2 128.818 716.5 131.485C709.8 134.151 701.507 135.495 691.62 135.515Z" fill="#212529"/>
<path d="M750.71 133.565C750.095 133.567 749.485 133.448 748.916 133.214C748.347 132.98 747.83 132.635 747.395 132.2C746.96 131.765 746.615 131.248 746.381 130.679C746.147 130.11 746.027 129.5 746.03 128.885V36.7648C746.027 36.1495 746.147 35.5397 746.381 34.9707C746.615 34.4017 746.96 33.8848 747.395 33.4497C747.83 33.0145 748.347 32.6699 748.916 32.4357C749.485 32.2014 750.095 32.0822 750.71 32.0848H765.93C766.545 32.0835 767.155 32.2036 767.724 32.4382C768.293 32.6728 768.81 33.0173 769.246 33.452C769.681 33.8867 770.027 34.4031 770.263 34.9715C770.499 35.54 770.62 36.1494 770.62 36.7648V43.4048C773.582 39.5639 777.333 36.4028 781.62 34.1348C786.709 31.4794 792.37 30.1064 798.11 30.1348C812.943 29.8748 823.277 35.6648 829.11 47.5048C832.208 42.1966 836.705 37.8415 842.11 34.9148C847.861 31.7034 854.353 30.0553 860.94 30.1348C867.39 30.0539 873.749 31.6677 879.38 34.8148C885.085 38.1101 889.656 43.0578 892.49 49.0048C895.71 55.2915 897.32 63.2481 897.32 72.8748V128.875C897.323 129.49 897.203 130.1 896.969 130.669C896.735 131.238 896.39 131.755 895.955 132.19C895.52 132.625 895.003 132.97 894.434 133.204C893.865 133.438 893.255 133.557 892.64 133.555H876.64C875.399 133.555 874.208 133.062 873.331 132.184C872.453 131.306 871.96 130.116 871.96 128.875V74.4348C871.96 68.5748 871.113 63.9081 869.42 60.4348C868.023 57.3042 865.619 54.731 862.59 53.1248C859.596 51.6687 856.299 50.9422 852.97 51.0048C849.981 51.0365 847.041 51.7731 844.39 53.1548C841.341 54.7875 838.889 57.3475 837.39 60.4648C835.57 63.9181 834.66 68.5848 834.66 74.4648V128.915C834.66 129.53 834.539 130.14 834.303 130.708C834.067 131.277 833.721 131.793 833.286 132.228C832.85 132.662 832.333 133.007 831.764 133.241C831.195 133.476 830.585 133.596 829.97 133.595H813.97C813.355 133.597 812.745 133.478 812.176 133.244C811.607 133.01 811.09 132.665 810.655 132.23C810.22 131.795 809.875 131.278 809.641 130.709C809.407 130.14 809.287 129.53 809.29 128.915V74.4348C809.29 68.5748 808.377 63.9081 806.55 60.4348C805.049 57.3187 802.598 54.7592 799.55 53.1248C796.684 51.6982 793.521 50.9716 790.32 51.0048C787.251 51.0249 784.234 51.7938 781.53 53.2448C778.509 54.92 776.069 57.4725 774.53 60.5648C772.71 63.9548 771.8 68.5648 771.8 74.4248V128.875C771.8 129.49 771.679 130.1 771.443 130.668C771.207 131.237 770.861 131.753 770.426 132.188C769.99 132.622 769.473 132.967 768.904 133.201C768.335 133.436 767.725 133.556 767.11 133.555L750.71 133.565Z" fill="#212529"/>
<path d="M942.51 135.515C936.17 135.611 929.894 134.242 924.17 131.515C918.996 129.1 914.522 125.407 911.17 120.785C907.166 115.037 905.587 107.943 906.774 101.039C907.96 94.1356 911.817 87.9765 917.51 83.8948C924.93 78.5082 934.623 74.8982 946.59 73.0648L973.32 69.1648V65.0648C973.32 59.6048 971.953 55.3782 969.22 52.3848C966.487 49.3915 961.82 47.8948 955.22 47.8948C950.553 47.8948 946.747 48.8382 943.8 50.7248C940.933 52.5358 938.66 55.1465 937.26 58.2348C936.813 59.0263 936.159 59.6811 935.368 60.1286C934.577 60.5761 933.679 60.7995 932.77 60.7748H917.32C916.731 60.8209 916.139 60.7403 915.583 60.5385C915.028 60.3367 914.522 60.0184 914.1 59.6048C913.349 58.7403 912.962 57.6185 913.02 56.4748C913.355 53.7806 914.254 51.1875 915.66 48.8648C917.572 45.5378 920.084 42.5946 923.07 40.1848C926.955 37.0715 931.355 34.6618 936.07 33.0648C941.403 31.1048 947.843 30.1282 955.39 30.1348C963.59 30.1348 970.52 31.1348 976.18 33.1348C981.243 34.7996 985.874 37.5659 989.74 41.2348C993.096 44.5802 995.632 48.6565 997.15 53.1448C998.735 57.793 999.529 62.674 999.5 67.5848V128.865C999.5 129.48 999.379 130.09 999.143 130.658C998.907 131.227 998.561 131.743 998.126 132.178C997.69 132.612 997.173 132.957 996.604 133.191C996.035 133.426 995.426 133.546 994.81 133.545H979C978.367 133.574 977.734 133.467 977.146 133.231C976.558 132.995 976.027 132.634 975.59 132.175C974.747 131.282 974.291 130.092 974.32 128.865V121.245C972.384 123.838 970.083 126.139 967.49 128.075C964.341 130.445 960.81 132.261 957.05 133.445C952.346 134.909 947.436 135.608 942.51 135.515ZM949.15 117.005C953.465 117.044 957.722 116.014 961.54 114.005C965.326 111.983 968.393 108.84 970.32 105.005C972.467 100.905 973.54 95.7315 973.54 89.4848V85.3648L954.02 88.4848C946.347 89.6582 940.623 91.5448 936.85 94.1448C933.077 96.7448 931.19 99.9315 931.19 103.705C931.126 106.389 932.068 109 933.83 111.025C935.644 113.082 937.964 114.63 940.56 115.515C943.316 116.502 946.222 117.006 949.15 117.005Z" fill="#212529"/>
<path d="M1013.32 171.645C1012.08 171.645 1010.89 171.152 1010.01 170.274C1009.13 169.396 1008.64 168.206 1008.64 166.965V36.7648C1008.64 35.5236 1009.13 34.3332 1010.01 33.4556C1010.89 32.5779 1012.08 32.0848 1013.32 32.0848H1028.74C1029.37 32.0564 1030.01 32.1639 1030.6 32.4002C1031.19 32.6365 1031.72 32.996 1032.16 33.4548C1033 34.3506 1033.45 35.5382 1033.43 36.7648V44.5748C1036.72 40.2699 1040.92 36.74 1045.72 34.2348C1050.79 31.4948 1057.1 30.1282 1064.65 30.1348C1070.82 29.9825 1076.94 31.1131 1082.65 33.4548C1087.57 35.5533 1091.91 38.7968 1095.32 42.9148C1098.81 47.2263 1101.46 52.1597 1103.12 57.4548C1105 63.4659 1106.04 69.7085 1106.21 76.0048C1106.34 78.2182 1106.4 80.4948 1106.4 82.8348C1106.4 85.1748 1106.34 87.5082 1106.21 89.8348C1106.15 95.9687 1105.18 102.06 1103.32 107.905C1101.64 113.18 1098.95 118.082 1095.42 122.345C1091.93 126.477 1087.56 129.777 1082.63 132.005C1076.96 134.47 1070.81 135.668 1064.63 135.515C1057.6 135.515 1051.6 134.248 1046.63 131.715C1041.88 129.338 1037.74 125.9 1034.53 121.665V167.005C1034.55 168.231 1034.1 169.418 1033.26 170.315C1032.82 170.774 1032.29 171.133 1031.7 171.369C1031.11 171.606 1030.47 171.713 1029.84 171.685L1013.32 171.645ZM1057.43 114.645C1063.02 114.645 1067.38 113.441 1070.5 111.035C1073.64 108.605 1076.02 105.315 1077.33 101.565C1078.81 97.4212 1079.67 93.0803 1079.87 88.6848C1080 84.7848 1080 80.8815 1079.87 76.9748C1079.66 72.5756 1078.8 68.2316 1077.32 64.0848C1076 60.3386 1073.63 57.0532 1070.49 54.6248C1067.37 52.2115 1063.01 51.0048 1057.42 51.0048C1052.09 51.0048 1047.75 52.2415 1044.42 54.7148C1041.16 57.1113 1038.65 60.3949 1037.2 64.1748C1035.72 67.9592 1034.84 71.9501 1034.59 76.0048C1034.45 78.3448 1034.39 80.8148 1034.39 83.4148C1034.39 86.0148 1034.45 88.5648 1034.59 91.0348C1034.71 94.9236 1035.64 98.7445 1037.32 102.255C1038.99 105.802 1041.54 108.86 1044.73 111.135C1047.98 113.468 1052.21 114.635 1057.42 114.635L1057.43 114.645Z" fill="#212529"/>
<path fill-rule="evenodd" clip-rule="evenodd" d="M185.238 82.5989L187.391 77.6444C189.931 71.8576 190.988 65.5297 190.465 59.2326C189.942 52.9355 187.856 46.8679 184.396 41.5783C180.935 36.2887 176.21 31.9439 170.646 28.9367C165.082 25.9295 158.856 24.3547 152.53 24.3547C146.204 24.3547 139.977 25.9295 134.414 28.9367C128.85 31.9439 124.124 36.2887 120.664 41.5783C117.203 46.8679 115.118 52.9355 114.595 59.2326C114.072 65.5297 115.128 71.8576 117.669 77.6444L95.258 87.494C91.0882 77.9927 89.3548 67.6033 90.2144 57.2649C91.0741 46.9264 94.4996 36.965 100.181 28.2809C105.863 19.5968 113.622 12.464 122.757 7.52704C131.891 2.59013 142.114 0.00482178 152.5 0.00482178C162.886 0.00482178 173.109 2.59013 182.243 7.52704C191.378 12.464 199.137 19.5968 204.819 28.2809C210.5 36.965 213.926 46.9264 214.786 57.2649C215.645 67.6033 213.912 77.9927 209.742 87.494L207.579 92.4485C202.497 104.023 196.252 115.052 188.938 125.366L158.79 167.886C157.868 169.186 156.641 170.241 155.216 170.959C153.792 171.677 152.213 172.035 150.618 172.003C149.022 171.971 147.459 171.549 146.065 170.774C144.671 169.999 143.488 168.895 142.619 167.559L114.038 123.602C108.065 114.419 102.849 104.765 98.4425 94.7374L95.258 87.494L117.639 77.684L120.823 84.9573C124.693 93.7673 129.275 102.248 134.524 110.314L151.329 136.147L169.008 111.226C175.372 102.256 180.81 92.6644 185.238 82.5989Z" fill="#212529"/>
<path fill-rule="evenodd" clip-rule="evenodd" d="M279.75 89.7777C280.773 88.757 281.584 87.5451 282.138 86.2113C282.692 84.8774 282.977 83.4478 282.977 82.004C282.977 80.5602 282.692 79.1305 282.138 77.7967C281.584 76.4628 280.773 75.251 279.75 74.2303L234.997 29.5564C233.718 28.2787 233 26.5464 233 24.7403C233 22.9342 233.718 21.202 234.997 19.9242L240.943 13.999C241.572 13.367 242.321 12.8655 243.146 12.5232C243.97 12.181 244.854 12.0048 245.747 12.0048C246.64 12.0048 247.524 12.181 248.349 12.5232C249.174 12.8655 249.922 13.367 250.552 13.999L295.325 58.6928C298.392 61.7547 300.825 65.3897 302.485 69.3903C304.146 73.3909 305 77.6787 305 82.009C305 86.3392 304.146 90.627 302.485 94.6276C300.825 98.6282 298.392 102.263 295.325 105.325L250.552 150.019C249.277 151.291 247.549 152.005 245.747 152.005C243.945 152.005 242.217 151.291 240.943 150.019L234.997 144.084C233.718 142.806 233 141.074 233 139.268C233 137.462 233.718 135.729 234.997 134.452L279.75 89.7777Z" fill="url(#paint0_linear)"/>
<path fill-rule="evenodd" clip-rule="evenodd" d="M25.2501 74.2319C24.2272 75.2526 23.4157 76.4645 22.862 77.7984C22.3084 79.1322 22.0234 80.5618 22.0234 82.0057C22.0234 83.4495 22.3084 84.8791 22.862 86.213C23.4157 87.5468 24.2272 88.7587 25.2501 89.7794L70.003 134.453C71.2817 135.731 72 137.463 72 139.269C72 141.075 71.2817 142.808 70.003 144.085L64.0573 150.011C63.4276 150.643 62.679 151.144 61.8544 151.486C61.0299 151.829 60.1457 152.005 59.2527 152.005C58.3597 152.005 57.4756 151.829 56.651 151.486C55.8265 151.144 55.0778 150.643 54.4481 150.011L9.67521 105.317C6.6078 102.255 4.1746 98.6199 2.51452 94.6193C0.854437 90.6187 -9.51739e-06 86.3309 -9.13883e-06 82.0007C-8.76027e-06 77.6704 0.854438 73.3826 2.51452 69.382C4.1746 65.3814 6.6078 61.7464 9.67522 58.6845L54.4481 13.9907C55.7226 12.7191 57.4508 12.0048 59.2527 12.0048C61.0547 12.0048 62.7829 12.7191 64.0573 13.9907L70.003 19.9259C71.2818 21.2037 72 22.9359 72 24.742C72 26.5481 71.2818 28.2803 70.003 29.5581L25.2501 74.2319Z" fill="url(#paint1_linear)"/>
<defs>
<linearGradient id="paint0_linear" x1="261.5" y1="70" x2="198.299" y2="130.896" gradientUnits="userSpaceOnUse">
<stop stop-color="#212529"/>
<stop offset="1" stop-color="white" stop-opacity="0"/>
</linearGradient>
<linearGradient id="paint1_linear" x1="41" y1="98.5" x2="106.693" y2="33.109" gradientUnits="userSpaceOnUse">
<stop stop-color="#212529"/>
<stop offset="1" stop-color="white" stop-opacity="0"/>
</linearGradient>
</defs>
</svg>
