<svg width="1107" height="173" viewBox="0 0 1107 173" fill="none" xmlns="http://www.w3.org/2000/svg">
<path d="M386.77 135.534C380.644 135.658 374.56 134.496 368.91 132.124C363.939 129.972 359.557 126.659 356.13 122.464C352.628 118.082 349.979 113.083 348.32 107.724C346.435 101.682 345.385 95.4107 345.2 89.0841C345.073 86.7441 345.007 84.6308 345 82.7441C345 80.8641 345.07 78.7441 345.2 76.4041C345.397 70.2485 346.406 64.1458 348.2 58.2541C349.838 52.8901 352.489 47.8899 356.01 43.5241C359.476 39.2785 363.887 35.902 368.89 33.6641C374.522 31.2241 380.614 30.0269 386.75 30.1541C393.77 30.1541 399.72 31.3574 404.6 33.7641C409.257 35.993 413.415 39.1431 416.82 43.0241V4.70411C416.791 3.47654 417.247 2.28703 418.09 1.39411C418.527 0.934517 419.057 0.574301 419.646 0.337914C420.234 0.101527 420.867 -0.0054974 421.5 0.0241075H439.09C439.708 0.0140719 440.321 0.130428 440.892 0.366025C441.463 0.601622 441.979 0.951483 442.41 1.39411C442.852 1.82299 443.202 2.33796 443.438 2.90725C443.673 3.47654 443.79 4.08806 443.78 4.70411V128.904C443.78 129.52 443.659 130.129 443.423 130.697C443.187 131.266 442.841 131.782 442.406 132.217C441.97 132.652 441.453 132.996 440.884 133.231C440.315 133.465 439.705 133.585 439.09 133.584H421.68C421.045 133.614 420.411 133.507 419.821 133.271C419.231 133.034 418.699 132.674 418.26 132.214C417.417 131.321 416.961 130.132 416.99 128.904V121.684C413.605 125.847 410.384 129.254 405.6 131.684C400.593 134.251 394.317 135.534 386.77 135.534ZM393.99 114.654C399.45 114.654 403.807 113.417 407.06 110.944C410.286 108.51 412.783 105.238 414.28 101.484C415.828 97.7315 416.688 93.7312 416.82 89.6741C416.95 87.3341 417.02 84.8241 417.02 82.1641C417.02 79.5041 416.95 76.9841 416.82 74.6441C416.693 70.756 415.763 66.9361 414.09 63.4241C412.422 59.8748 409.866 56.8161 406.67 54.5441C403.423 52.1974 399.197 51.0241 393.99 51.0241C388.517 51.0241 384.183 52.2274 380.99 54.6341C377.802 57.0396 375.392 60.3294 374.06 64.0941C372.582 68.2544 371.736 72.6129 371.55 77.0241C371.41 80.9374 371.41 84.8408 371.55 88.7341C371.745 93.1298 372.597 97.4714 374.08 101.614C375.409 105.383 377.819 108.677 381.01 111.084C384.203 113.471 388.53 114.661 393.99 114.654Z" fill="#CCF381"/>
<path d="M500.26 135.534C485.82 135.534 474.37 131.371 465.91 123.044C457.45 114.717 452.897 102.877 452.25 87.5241C452.12 86.2241 452.05 84.5241 452.05 82.5241C452.033 80.9284 452.099 79.3329 452.25 77.7441C452.77 67.8508 455.013 59.3608 458.98 52.2741C462.79 45.3417 468.515 39.652 475.47 35.8841C482.503 32.0441 490.767 30.1241 500.26 30.1241C510.8 30.1241 519.647 32.3041 526.8 36.6641C533.89 40.9583 539.532 47.276 543 54.8041C546.64 62.5575 548.46 71.5042 548.46 81.6441V85.7441C548.471 86.3604 548.355 86.9722 548.119 87.5417C547.884 88.1112 547.533 88.626 547.09 89.0541C546.63 89.5113 546.082 89.8689 545.478 90.1046C544.874 90.3403 544.228 90.4491 543.58 90.4241H478.79V92.0241C478.873 96.3483 479.765 100.619 481.42 104.614C482.936 108.308 485.437 111.515 488.65 113.884C491.969 116.267 495.976 117.5 500.06 117.394C505.662 117.611 511.131 115.65 515.32 111.924C516.54 110.863 517.652 109.684 518.64 108.404C519.367 107.267 520.333 106.301 521.47 105.574C522.501 105.202 523.595 105.039 524.69 105.094H541.47C542.655 105.051 543.81 105.47 544.69 106.264C545.1 106.624 545.414 107.08 545.602 107.592C545.791 108.104 545.849 108.654 545.77 109.194C545.64 111.274 544.56 113.804 542.55 116.804C540.152 120.185 537.216 123.151 533.86 125.584C529.564 128.715 524.784 131.12 519.71 132.704C513.422 134.69 506.854 135.646 500.26 135.534ZM478.79 74.0241H521.92V73.4342C522.013 68.8493 521.148 64.2954 519.38 60.0641C517.847 56.4017 515.27 53.2716 511.97 51.0641C508.428 48.9563 504.382 47.8437 500.26 47.8437C496.138 47.8437 492.092 48.9563 488.55 51.0641C485.255 53.2535 482.702 56.392 481.23 60.0641C479.525 64.3112 478.695 68.8587 478.79 73.4342V74.0241Z" fill="#CCF381"/>
<path d="M589.49 133.584C588.667 133.654 587.837 133.561 587.05 133.311C586.262 133.06 585.532 132.657 584.9 132.124C583.907 131.124 583.083 129.969 582.46 128.704L545.97 38.1541C545.726 37.5987 545.593 37.0007 545.58 36.3941C545.588 35.2587 546.042 34.1721 546.845 33.3693C547.648 32.5664 548.735 32.1119 549.87 32.1041H565.68C566.322 32.0543 566.967 32.1418 567.572 32.3608C568.177 32.5797 568.729 32.9252 569.19 33.3741C569.874 34.0698 570.406 34.9009 570.75 35.8141L596.75 104.314L622.75 35.8141C623.094 34.9009 623.626 34.0698 624.31 33.3741C624.773 32.9244 625.326 32.5785 625.933 32.3595C626.54 32.1405 627.187 32.0535 627.83 32.1041H643.83C644.363 32.1115 644.89 32.228 645.376 32.4464C645.863 32.6648 646.3 32.9805 646.66 33.3741C647.063 33.7626 647.383 34.2287 647.602 34.7442C647.82 35.2598 647.932 35.8142 647.93 36.3741C647.921 36.9658 647.854 37.5553 647.73 38.1341L611.04 128.684C610.521 129.982 609.722 131.15 608.7 132.104C607.383 133.17 605.709 133.692 604.02 133.564L589.49 133.584Z" fill="#CCF381"/>
<path d="M691.62 135.534C684.851 135.681 678.102 134.759 671.62 132.804C666.744 131.333 662.155 129.04 658.05 126.024C654.986 123.769 652.343 120.994 650.24 117.824C648.55 115.094 647.64 112.824 647.51 110.994C647.417 110.365 647.484 109.722 647.706 109.126C647.929 108.529 648.298 107.999 648.78 107.584C649.658 106.775 650.806 106.322 652 106.314H667.42C667.88 106.309 668.339 106.373 668.78 106.504C669.364 106.769 669.888 107.15 670.32 107.624C672.01 109.064 673.8 110.554 675.69 112.114C677.728 113.767 679.995 115.114 682.42 116.114C686.077 117.406 689.956 117.952 693.828 117.718C697.7 117.484 701.485 116.477 704.96 114.754C706.249 114.021 707.364 113.017 708.227 111.811C709.09 110.605 709.681 109.227 709.96 107.77C710.238 106.314 710.197 104.814 709.84 103.375C709.483 101.936 708.818 100.591 707.89 99.4341C706.39 97.7474 703.627 96.2174 699.6 94.8441C693.96 93.0594 688.225 91.5937 682.42 90.4541C676.131 89.1123 670.046 86.9505 664.32 84.0241C659.923 81.8066 656.213 78.4323 653.59 74.2641C651.105 69.9306 649.886 64.9872 650.07 59.9953C650.253 55.0034 651.833 50.1631 654.63 46.0241C657.69 41.4374 662.253 37.6441 668.32 34.6441C674.387 31.6441 681.9 30.1474 690.86 30.1541C697.075 30.0359 703.269 30.924 709.2 32.7841C713.854 34.2592 718.242 36.467 722.2 39.3241C725.239 41.5182 727.906 44.1854 730.1 47.2241C731.92 49.8908 732.897 52.2008 733.03 54.1541C733.124 54.7762 733.067 55.4117 732.863 56.007C732.659 56.6023 732.315 57.1398 731.86 57.5741C731.025 58.3872 729.906 58.8428 728.74 58.8441H714.25C713.643 58.8552 713.042 58.7179 712.5 58.4441C711.947 58.1648 711.425 57.8298 710.94 57.4441C709.5 56.1108 707.937 54.7108 706.25 53.2441C704.415 51.6633 702.343 50.3809 700.11 49.4441C697.089 48.2971 693.869 47.7666 690.64 47.8841C685.687 47.8841 681.913 48.9574 679.32 51.1041C678.087 52.0599 677.093 53.289 676.416 54.6947C675.739 56.1004 675.398 57.6441 675.42 59.2041C675.37 61.3042 676.04 63.3583 677.32 65.0241C678.56 66.6574 681.067 68.1874 684.84 69.6141C690.429 71.508 696.152 72.9821 701.96 74.0241C710.673 75.5841 717.6 77.8941 722.74 80.9541C727.88 84.0141 731.523 87.5374 733.67 91.5241C735.839 95.5751 736.947 100.109 736.89 104.704C736.942 110.395 735.126 115.945 731.72 120.504C728.273 125.171 723.2 128.837 716.5 131.504C709.8 134.171 701.507 135.514 691.62 135.534Z" fill="#CCF381"/>
<path d="M750.71 133.584C750.095 133.587 749.485 133.468 748.916 133.233C748.347 132.999 747.83 132.654 747.395 132.219C746.96 131.784 746.615 131.267 746.381 130.698C746.147 130.129 746.027 129.519 746.03 128.904V36.7841C746.027 36.1688 746.147 35.559 746.381 34.99C746.615 34.421 746.96 33.9041 747.395 33.469C747.83 33.0339 748.347 32.6892 748.916 32.455C749.485 32.2207 750.095 32.1015 750.71 32.1041H765.93C766.545 32.1028 767.155 32.2229 767.724 32.4575C768.293 32.6921 768.81 33.0366 769.246 33.4713C769.681 33.906 770.027 34.4224 770.263 34.9909C770.499 35.5593 770.62 36.1687 770.62 36.7841V43.4241C773.582 39.5832 777.333 36.4222 781.62 34.1541C786.709 31.4988 792.37 30.1257 798.11 30.1541C812.943 29.8941 823.277 35.6841 829.11 47.5241C832.208 42.2159 836.705 37.8608 842.11 34.9341C847.861 31.7227 854.353 30.0747 860.94 30.1541C867.39 30.0732 873.749 31.687 879.38 34.8341C885.085 38.1294 889.656 43.0771 892.49 49.0241C895.71 55.3108 897.32 63.2675 897.32 72.8941V128.894C897.323 129.509 897.203 130.119 896.969 130.688C896.735 131.257 896.39 131.774 895.955 132.209C895.52 132.644 895.003 132.989 894.434 133.223C893.865 133.458 893.255 133.577 892.64 133.574H876.64C875.399 133.574 874.208 133.081 873.331 132.203C872.453 131.326 871.96 130.135 871.96 128.894V74.4541C871.96 68.5941 871.113 63.9275 869.42 60.4541C868.023 57.3235 865.619 54.7503 862.59 53.1441C859.596 51.688 856.299 50.9615 852.97 51.0241C849.981 51.0558 847.041 51.7925 844.39 53.1741C841.341 54.8069 838.889 57.3668 837.39 60.4841C835.57 63.9375 834.66 68.6041 834.66 74.4841V128.934C834.66 129.55 834.539 130.159 834.303 130.727C834.067 131.296 833.721 131.812 833.286 132.247C832.85 132.682 832.333 133.026 831.764 133.261C831.195 133.495 830.585 133.615 829.97 133.614H813.97C813.355 133.617 812.745 133.498 812.176 133.263C811.607 133.029 811.09 132.684 810.655 132.249C810.22 131.814 809.875 131.297 809.641 130.728C809.407 130.159 809.287 129.549 809.29 128.934V74.4541C809.29 68.5941 808.377 63.9275 806.55 60.4541C805.049 57.338 802.598 54.7785 799.55 53.1441C796.684 51.7175 793.521 50.9909 790.32 51.0241C787.251 51.0442 784.234 51.8131 781.53 53.2641C778.509 54.9393 776.069 57.4918 774.53 60.5841C772.71 63.9741 771.8 68.5841 771.8 74.4441V128.894C771.8 129.51 771.679 130.119 771.443 130.687C771.207 131.256 770.861 131.772 770.426 132.207C769.99 132.642 769.473 132.986 768.904 133.221C768.335 133.455 767.725 133.575 767.11 133.574L750.71 133.584Z" fill="#CCF381"/>
<path d="M942.51 135.534C936.17 135.63 929.894 134.262 924.17 131.534C918.996 129.119 914.522 125.427 911.17 120.804C907.166 115.056 905.587 107.963 906.774 101.059C907.96 94.1548 911.817 87.9958 917.51 83.9141C924.93 78.5274 934.623 74.9174 946.59 73.0841L973.32 69.1841V65.0841C973.32 59.6241 971.953 55.3974 969.22 52.4041C966.487 49.4108 961.82 47.9141 955.22 47.9141C950.553 47.9141 946.747 48.8574 943.8 50.7441C940.933 52.555 938.66 55.1658 937.26 58.2541C936.813 59.0456 936.159 59.7003 935.368 60.1478C934.577 60.5954 933.679 60.8188 932.77 60.7941H917.32C916.731 60.8402 916.139 60.7596 915.583 60.5578C915.028 60.356 914.522 60.0376 914.1 59.6241C913.349 58.7596 912.962 57.6378 913.02 56.4941C913.355 53.7999 914.254 51.2067 915.66 48.8841C917.572 45.5571 920.084 42.6139 923.07 40.2041C926.955 37.0907 931.355 34.681 936.07 33.0841C941.403 31.1241 947.843 30.1474 955.39 30.1541C963.59 30.1541 970.52 31.1541 976.18 33.1541C981.243 34.8188 985.874 37.5852 989.74 41.2541C993.096 44.5995 995.632 48.6758 997.15 53.1641C998.735 57.8123 999.529 62.6933 999.5 67.6041V128.884C999.5 129.5 999.379 130.109 999.143 130.677C998.907 131.246 998.561 131.762 998.126 132.197C997.69 132.632 997.173 132.976 996.604 133.211C996.035 133.445 995.426 133.565 994.81 133.564H979C978.367 133.594 977.734 133.487 977.146 133.25C976.558 133.014 976.027 132.654 975.59 132.194C974.747 131.301 974.291 130.112 974.32 128.884V121.264C972.384 123.857 970.083 126.158 967.49 128.094C964.341 130.465 960.81 132.281 957.05 133.464C952.346 134.928 947.436 135.627 942.51 135.534ZM949.15 117.024C953.465 117.064 957.722 116.033 961.54 114.024C965.326 112.003 968.393 108.859 970.32 105.024C972.467 100.924 973.54 95.7508 973.54 89.5041V85.3841L954.02 88.5041C946.347 89.6774 940.623 91.5641 936.85 94.1641C933.077 96.7641 931.19 99.9508 931.19 103.724C931.126 106.408 932.068 109.019 933.83 111.044C935.644 113.102 937.964 114.649 940.56 115.534C943.316 116.521 946.222 117.025 949.15 117.024Z" fill="#CCF381"/>
<path d="M1013.32 171.664C1012.08 171.664 1010.89 171.171 1010.01 170.293C1009.13 169.416 1008.64 168.225 1008.64 166.984V36.7841C1008.64 35.5429 1009.13 34.3525 1010.01 33.4748C1010.89 32.5971 1012.08 32.1041 1013.32 32.1041H1028.74C1029.37 32.0756 1030.01 32.1832 1030.6 32.4194C1031.19 32.6557 1031.72 33.0153 1032.16 33.4741C1033 34.3699 1033.45 35.5574 1033.43 36.7841V44.5941C1036.72 40.2891 1040.92 36.7593 1045.72 34.2541C1050.79 31.5141 1057.1 30.1474 1064.65 30.1541C1070.82 30.0018 1076.94 31.1324 1082.65 33.4741C1087.57 35.5726 1091.91 38.8161 1095.32 42.9341C1098.81 47.2455 1101.46 52.1789 1103.12 57.4741C1105 63.4852 1106.04 69.7278 1106.21 76.0241C1106.34 78.2374 1106.4 80.5141 1106.4 82.8541C1106.4 85.1941 1106.34 87.5274 1106.21 89.8541C1106.15 95.9879 1105.18 102.079 1103.32 107.924C1101.64 113.199 1098.95 118.101 1095.42 122.364C1091.93 126.496 1087.56 129.797 1082.63 132.024C1076.96 134.489 1070.81 135.687 1064.63 135.534C1057.6 135.534 1051.6 134.267 1046.63 131.734C1041.88 129.358 1037.74 125.919 1034.53 121.684V167.024C1034.55 168.251 1034.1 169.438 1033.26 170.334C1032.82 170.793 1032.29 171.152 1031.7 171.389C1031.11 171.625 1030.47 171.732 1029.84 171.704L1013.32 171.664ZM1057.43 114.664C1063.02 114.664 1067.38 113.461 1070.5 111.054C1073.64 108.624 1076.02 105.334 1077.33 101.584C1078.81 97.4404 1079.67 93.0996 1079.87 88.7041C1080 84.8041 1080 80.9007 1079.87 76.9941C1079.66 72.5949 1078.8 68.2509 1077.32 64.1041C1076 60.3579 1073.63 57.0725 1070.49 54.6441C1067.37 52.2307 1063.01 51.0241 1057.42 51.0241C1052.09 51.0241 1047.75 52.2607 1044.42 54.7341C1041.16 57.1306 1038.65 60.4141 1037.2 64.1941C1035.72 67.9784 1034.84 71.9694 1034.59 76.0241C1034.45 78.3641 1034.39 80.8341 1034.39 83.4341C1034.39 86.0341 1034.45 88.5841 1034.59 91.0541C1034.71 94.9429 1035.64 98.7638 1037.32 102.274C1038.99 105.821 1041.54 108.879 1044.73 111.154C1047.98 113.487 1052.21 114.654 1057.42 114.654L1057.43 114.664Z" fill="#CCF381"/>
<path fill-rule="evenodd" clip-rule="evenodd" d="M185.238 82.6183L187.391 77.6637C189.931 71.877 190.988 65.549 190.465 59.2519C189.942 52.9549 187.856 46.8873 184.396 41.5977C180.935 36.3081 176.21 31.9633 170.646 28.9561C165.082 25.9489 158.856 24.3741 152.53 24.3741C146.204 24.3741 139.977 25.9489 134.414 28.9561C128.85 31.9633 124.124 36.3081 120.664 41.5977C117.203 46.8873 115.118 52.9549 114.595 59.2519C114.072 65.549 115.128 71.877 117.669 77.6637L95.258 87.5133C91.0882 78.012 89.3548 67.6226 90.2144 57.2842C91.0741 46.9458 94.4996 36.9843 100.181 28.3002C105.863 19.6162 113.622 12.4833 122.757 7.54639C131.891 2.60948 142.114 0.0241699 152.5 0.0241699C162.886 0.0241699 173.109 2.60948 182.243 7.54639C191.378 12.4833 199.137 19.6162 204.819 28.3002C210.5 36.9843 213.926 46.9458 214.786 57.2842C215.645 67.6226 213.912 78.012 209.742 87.5133L207.579 92.4678C202.497 104.042 196.252 115.071 188.938 125.386L158.79 167.905C157.868 169.206 156.641 170.261 155.216 170.978C153.792 171.696 152.213 172.054 150.618 172.022C149.022 171.99 147.459 171.568 146.065 170.793C144.671 170.019 143.488 168.915 142.619 167.578L114.038 123.622C108.065 114.438 102.849 104.785 98.4425 94.7568L95.258 87.5133L117.639 77.7034L120.823 84.9766C124.693 93.7866 129.275 102.267 134.524 110.334L151.329 136.167L169.008 111.245C175.372 102.275 180.81 92.6838 185.238 82.6183Z" fill="#CCF381"/>
<path fill-rule="evenodd" clip-rule="evenodd" d="M279.75 89.797C280.773 88.7764 281.584 87.5645 282.138 86.2306C282.692 84.8968 282.977 83.4671 282.977 82.0233C282.977 80.5795 282.692 79.1499 282.138 77.816C281.584 76.4822 280.773 75.2703 279.75 74.2496L234.997 29.5758C233.718 28.298 233 26.5658 233 24.7597C233 22.9536 233.718 21.2213 234.997 19.9436L240.943 14.0184C241.572 13.3864 242.321 12.8848 243.146 12.5426C243.97 12.2004 244.854 12.0242 245.747 12.0242C246.64 12.0242 247.524 12.2004 248.349 12.5426C249.174 12.8848 249.922 13.3864 250.552 14.0184L295.325 58.7122C298.392 61.7741 300.825 65.4091 302.485 69.4097C304.146 73.4103 305 77.6981 305 82.0283C305 86.3586 304.146 90.6464 302.485 94.647C300.825 98.6476 298.392 102.283 295.325 105.344L250.552 150.038C249.277 151.31 247.549 152.024 245.747 152.024C243.945 152.024 242.217 151.31 240.943 150.038L234.997 144.103C233.718 142.825 233 141.093 233 139.287C233 137.481 233.718 135.749 234.997 134.471L279.75 89.797Z" fill="url(#paint0_linear)"/>
<path fill-rule="evenodd" clip-rule="evenodd" d="M25.2501 74.2513C24.2272 75.272 23.4157 76.4839 22.862 77.8177C22.3084 79.1515 22.0234 80.5812 22.0234 82.025C22.0234 83.4688 22.3084 84.8985 22.862 86.2323C23.4157 87.5662 24.2272 88.778 25.2501 89.7987L70.003 134.473C71.2817 135.75 72 137.483 72 139.289C72 141.095 71.2817 142.827 70.003 144.105L64.0573 150.03C63.4276 150.662 62.679 151.164 61.8544 151.506C61.0299 151.848 60.1457 152.024 59.2527 152.024C58.3597 152.024 57.4756 151.848 56.651 151.506C55.8265 151.164 55.0778 150.662 54.4481 150.03L9.67521 105.336C6.6078 102.274 4.1746 98.6393 2.51452 94.6387C0.854437 90.6381 -9.51739e-06 86.3502 -9.13883e-06 82.02C-8.76027e-06 77.6898 0.854438 73.4019 2.51452 69.4014C4.1746 65.4008 6.6078 61.7657 9.67522 58.7039L54.4481 14.0101C55.7226 12.7385 57.4508 12.0242 59.2527 12.0242C61.0547 12.0242 62.7829 12.7385 64.0573 14.0101L70.003 19.9453C71.2818 21.223 72 22.9552 72 24.7613C72 26.5675 71.2818 28.2997 70.003 29.5775L25.2501 74.2513Z" fill="url(#paint1_linear)"/>
<defs>
<linearGradient id="paint0_linear" x1="261.5" y1="70.0193" x2="198.299" y2="130.916" gradientUnits="userSpaceOnUse">
<stop stop-color="#CCF381"/>
<stop offset="1" stop-color="#CCF381" stop-opacity="0"/>
</linearGradient>
<linearGradient id="paint1_linear" x1="41" y1="98.5193" x2="106.693" y2="33.1284" gradientUnits="userSpaceOnUse">
<stop stop-color="#CCF381"/>
<stop offset="1" stop-color="#CCF381" stop-opacity="0"/>
</linearGradient>
</defs>
</svg>
